Metropolis-Black.ufo
<glyph name="numbersign" format="2">
	<advance width="689"/>
	<unicode hex="0023"/>
	<outline>
		<contour>
			<point x="250" y="687" type="line"/>
			<point x="77" y="0" type="line"/>
			<point x="212" y="0" type="line"/>
			<point x="385" y="687" type="line"/>
		</contour>
		<contour>
			<point x="477" y="687" type="line"/>
			<point x="304" y="0" type="line"/>
			<point x="439" y="0" type="line"/>
			<point x="612" y="687" type="line"/>
		</contour>
		<contour>
			<point x="66" y="281" type="line"/>
			<point x="33" y="147" type="line"/>
			<point x="560" y="147" type="line"/>
			<point x="593" y="281" type="line"/>
		</contour>
		<contour>
			<point x="127" y="538" type="line"/>
			<point x="94" y="404" type="line"/>
			<point x="624" y="404" type="line"/>
			<point x="657" y="538" type="line"/>
		</contour>
	</outline>
</glyph>
<glyph name="ampersand" format="2">
	<advance width="734"/>
	<unicode hex="0026"/>
	<outline>
		<contour>
			<point x="286" y="-12" type="curve"/>
			<point x="286" y="-12" type="line"/>
			<point x="461" y="-12"/>
			<point x="578" y="108"/>
			<point x="684" y="307" type="curve"/>
			<point x="550" y="372" type="line"/>
			<point x="498" y="249"/>
			<point x="399" y="129"/>
			<point x="313" y="129" type="curve"/>
			<point x="271" y="129"/>
			<point x="236" y="158"/>
			<point x="236" y="205" type="curve"/>
			<point x="236" y="247"/>
			<point x="260" y="274"/>
			<point x="341" y="310" type="curve"/>
			<point x="516" y="388"/>
			<point x="568" y="431"/>
			<point x="568" y="512" type="curve"/>
			<point x="568" y="620"/>
			<point x="479" y="696"/>
			<point x="353" y="696" type="curve"/>
			<point x="240" y="696"/>
			<point x="145" y="612"/>
			<point x="145" y="512" type="curve"/>
			<point x="145" y="444"/>
			<point x="162" y="413"/>
			<point x="230" y="322" type="curve"/>
			<point x="277" y="259"/>
			<point x="382" y="145"/>
			<point x="540" y="-22" type="curve"/>
			<point x="693" y="46" type="line"/>
			<point x="522" y="230"/>
			<point x="431" y="331"/>
			<point x="370" y="403" type="curve"/>
			<point x="329" y="452"/>
			<point x="304" y="471"/>
			<point x="304" y="512" type="curve"/>
			<point x="304" y="542"/>
			<point x="328" y="567"/>
			<point x="357" y="567" type="curve"/>
			<point x="387" y="567"/>
			<point x="409" y="544"/>
			<point x="409" y="512" type="curve"/>
			<point x="409" y="460"/>
			<point x="374" y="450"/>
			<point x="265" y="411" type="curve"/>
			<point x="104" y="354"/>
			<point x="45" y="301"/>
			<point x="45" y="191" type="curve"/>
			<point x="45" y="62"/>
			<point x="146" y="-12"/>
		</contour>
	</outline>
</glyph>
<glyph name="two" format="2">
	<advance width="657"/>
	<unicode hex="0032"/>
	<outline>
		<contour>
			<point x="51" y="157" type="line"/>
			<point x="51" y="0" type="line"/>
			<point x="601" y="0" type="line"/>
			<point x="601" y="173" type="line"/>
			<point x="348" y="173" type="line"/>
			<point x="437" y="230" type="line" smooth="yes"/>
			<point x="559" y="308"/>
			<point x="595" y="378"/>
			<point x="595" y="468" type="curve"/>
			<point x="595" y="601"/>
			<point x="485" y="699"/>
			<point x="322" y="699" type="curve"/>
			<point x="208" y="699"/>
			<point x="115" y="653"/>
			<point x="39" y="563" type="curve"/>
			<point x="159" y="442" type="line"/>
			<point x="212" y="495"/>
			<point x="258" y="523"/>
			<point x="317" y="523" type="curve"/>
			<point x="362" y="523"/>
			<point x="395" y="498"/>
			<point x="395" y="460" type="curve"/>
			<point x="395" y="424"/>
			<point x="378" y="393"/>
			<point x="306" y="341" type="curve"/>
		</contour>
	</outline>
</glyph>
<glyph name="four" format="2">
	<advance width="692"/>
	<unicode hex="0034"/>
	<outline>
		<contour>
			<point x="380" y="122" type="line"/>
			<point x="380" y="0" type="line"/>
			<point x="574" y="0" type="line"/>
			<point x="574" y="122" type="line"/>
			<point x="657" y="122" type="line"/>
			<point x="657" y="282" type="line"/>
			<point x="574" y="282" type="line"/>
			<point x="574" y="687" type="line"/>
			<point x="336" y="687" type="line"/>
			<point x="33" y="268" type="line"/>
			<point x="49" y="122" type="line"/>
		</contour>
		<contour>
			<point x="380" y="282" type="line"/>
			<point x="232" y="282" type="line"/>
			<point x="380" y="488" type="line"/>
		</contour>
	</outline>
</glyph>
<glyph name="question" format="2">
	<advance width="530"/>
	<unicode hex="003F"/>
	<outline>
		<contour>
			<point x="172" y="414" type="curve"/>
			<point x="172" y="264" type="line"/>
			<point x="336" y="264" type="line"/>
			<point x="336" y="300" type="line"/>
			<point x="430" y="323"/>
			<point x="497" y="403"/>
			<point x="497" y="494" type="curve"/>
			<point x="497" y="614"/>
			<point x="400" y="699"/>
			<point x="262" y="699" type="curve"/>
			<point x="165" y="699"/>
			<point x="81" y="658"/>
			<point x="21" y="596" type="curve"/>
			<point x="127" y="487" type="line"/>
			<point x="152" y="510"/>
			<point x="192" y="526"/>
			<point x="224" y="526" type="curve"/>
			<point x="269" y="526"/>
			<point x="301" y="505"/>
			<point x="301" y="475" type="curve"/>
			<point x="301" y="439"/>
			<point x="248" y="414"/>
		</contour>
		<contour>
			<point x="254" y="-12" type="curve"/>
			<point x="254" y="-12" type="line"/>
			<point x="316" y="-12"/>
			<point x="367" y="41"/>
			<point x="367" y="106" type="curve"/>
			<point x="367" y="166"/>
			<point x="316" y="219"/>
			<point x="254" y="219" type="curve"/>
			<point x="187" y="219"/>
			<point x="136" y="166"/>
			<point x="136" y="106" type="curve"/>
			<point x="136" y="41"/>
			<point x="187" y="-12"/>
		</contour>
	</outline>
</glyph>
<glyph name="at" format="2">
	<advance width="894"/>
	<unicode hex="0040"/>
	<outline>
		<contour>
			<point x="433" y="-116" type="curve"/>
			<point x="433" y="-116" type="line"/>
			<point x="522" y="-116"/>
			<point x="600" y="-91"/>
			<point x="670" y="-47" type="curve"/>
			<point x="648" y="-14" type="line"/>
			<point x="583" y="-53"/>
			<point x="517" y="-75"/>
			<point x="436" y="-75" type="curve"/>
			<point x="236" y="-75"/>
			<point x="95" y="72"/>
			<point x="95" y="261" type="curve"/>
			<point x="95" y="465"/>
			<point x="260" y="634"/>
			<point x="470" y="634" type="curve"/>
			<point x="667" y="634"/>
			<point x="799" y="503"/>
			<point x="799" y="334" type="curve"/>
			<point x="799" y="222"/>
			<point x="752" y="163"/>
			<point x="700" y="163" type="curve"/>
			<point x="671" y="163"/>
			<point x="653" y="181"/>
			<point x="653" y="211" type="curve"/>
			<point x="653" y="255"/>
			<point x="669" y="306"/>
			<point x="703" y="484" type="curve"/>
			<point x="547" y="496" type="line"/>
			<point x="536" y="444" type="line"/>
			<point x="511" y="481"/>
			<point x="469" y="509"/>
			<point x="408" y="509" type="curve"/>
			<point x="292" y="509"/>
			<point x="189" y="395"/>
			<point x="189" y="260" type="curve"/>
			<point x="189" y="150"/>
			<point x="256" y="73"/>
			<point x="359" y="73" type="curve"/>
			<point x="412" y="73"/>
			<point x="461" y="99"/>
			<point x="497" y="146" type="curve"/>
			<point x="516" y="102"/>
			<point x="555" y="71"/>
			<point x="627" y="71" type="curve"/>
			<point x="726" y="71"/>
			<point x="845" y="154"/>
			<point x="845" y="334" type="curve"/>
			<point x="845" y="516"/>
			<point x="692" y="676"/>
			<point x="472" y="676" type="curve"/>
			<point x="241" y="676"/>
			<point x="52" y="486"/>
			<point x="52" y="260" type="curve"/>
			<point x="52" y="50"/>
			<point x="213" y="-116"/>
		</contour>
		<contour>
			<point x="418" y="202" type="curve"/>
			<point x="418" y="202" type="line"/>
			<point x="378" y="202"/>
			<point x="350" y="228"/>
			<point x="350" y="273" type="curve"/>
			<point x="350" y="328"/>
			<point x="388" y="380"/>
			<point x="447" y="380" type="curve"/>
			<point x="487" y="380"/>
			<point x="512" y="349"/>
			<point x="508" y="304" type="curve"/>
			<point x="503" y="244"/>
			<point x="465" y="202"/>
		</contour>
	</outline>
</glyph>
<glyph name="A" format="2">
	<advance width="767"/>
	<unicode hex="0041"/>
	<guideline x="384" y="332" angle="90"/>
	<anchor x="384" y="687" name="top"/>
	<anchor x="757" y="0" name="bottom"/>
	<outline>
		<contour>
			<point x="274" y="687" type="line"/>
			<point x="538" y="0" type="line"/>
			<point x="757" y="0" type="line"/>
			<point x="493" y="687" type="line"/>
		</contour>
		<contour>
			<point x="175" y="235" type="line"/>
			<point x="175" y="92" type="line"/>
			<point x="594" y="92" type="line"/>
			<point x="594" y="235" type="line"/>
		</contour>
		<contour>
			<point x="274" y="687" type="line"/>
			<point x="10" y="0" type="line"/>
			<point x="229" y="0" type="line"/>
			<point x="493" y="687" type="line"/>
		</contour>
	</outline>
</glyph>
<glyph name="D" format="2">
	<advance width="756"/>
	<unicode hex="0044"/>
	<anchor x="322" y="687" name="top"/>
	<outline>
		<contour>
			<point x="66" y="687" type="line"/>
			<point x="66" y="0" type="line"/>
			<point x="322" y="0" type="line" smooth="yes"/>
			<point x="562" y="0"/>
			<point x="732" y="143"/>
			<point x="732" y="344" type="curve"/>
			<point x="732" y="545"/>
			<point x="562" y="687"/>
			<point x="322" y="687" type="curve"/>
		</contour>
		<contour>
			<point x="354" y="176" type="curve"/>
			<point x="260" y="176" type="line"/>
			<point x="260" y="511" type="line"/>
			<point x="354" y="511" type="line" smooth="yes"/>
			<point x="458" y="511"/>
			<point x="532" y="442"/>
			<point x="532" y="344" type="curve"/>
			<point x="532" y="246"/>
			<point x="458" y="176"/>
		</contour>
	</outline>
</glyph>
<glyph name="G" format="2">
	<advance width="725"/>
	<unicode hex="0047"/>
	<anchor x="403" y="687" name="top"/>
	<anchor x="403" y="0" name="bottom"/>
	<outline>
		<contour>
			<point x="403" y="-12" type="curve"/>
			<point x="403" y="-12" type="line"/>
			<point x="511" y="-12"/>
			<point x="616" y="33"/>
			<point x="687" y="110" type="curve"/>
			<point x="545" y="234" type="line"/>
			<point x="510" y="190"/>
			<point x="458" y="164"/>
			<point x="403" y="164" type="curve"/>
			<point x="305" y="164"/>
			<point x="224" y="245"/>
			<point x="224" y="344" type="curve"/>
			<point x="224" y="442"/>
			<point x="305" y="523"/>
			<point x="403" y="523" type="curve"/>
			<point x="458" y="523"/>
			<point x="510" y="497"/>
			<point x="544" y="453" type="curve"/>
			<point x="687" y="578" type="line"/>
			<point x="616" y="654"/>
			<point x="511" y="699"/>
			<point x="403" y="699" type="curve"/>
			<point x="195" y="699"/>
			<point x="24" y="539"/>
			<point x="24" y="344" type="curve"/>
			<point x="24" y="148"/>
			<point x="195" y="-12"/>
		</contour>
		<contour>
			<point x="499" y="288" type="line"/>
			<point x="499" y="110" type="line"/>
			<point x="687" y="110" type="line"/>
			<point x="687" y="402" type="line"/>
			<point x="365" y="402" type="line"/>
			<point x="365" y="259" type="line"/>
			<point x="528" y="259" type="line"/>
		</contour>
	</outline>
</glyph>
<glyph name="I" format="2">
	<advance width="326"/>
	<unicode hex="0049"/>
	<anchor x="163" y="687" name="top"/>
	<anchor x="260" y="0" name="bottom"/>
	<outline>
		<contour>
			<point x="66" y="687" type="line"/>
			<point x="66" y="0" type="line"/>
			<point x="260" y="0" type="line"/>
			<point x="260" y="687" type="line"/>
		</contour>
	</outline>
</glyph>
<glyph name="J" format="2">
	<advance width="549"/>
	<unicode hex="004A"/>
	<outline>
		<contour>
			<point x="247" y="-12" type="curve"/>
			<point x="247" y="-12" type="line"/>
			<point x="393" y="-12"/>
			<point x="496" y="86"/>
			<point x="496" y="224" type="curve"/>
			<point x="496" y="687" type="line"/>
			<point x="302" y="687" type="line"/>
			<point x="302" y="244" type="line" smooth="yes"/>
			<point x="302" y="197"/>
			<point x="268" y="164"/>
			<point x="221" y="164" type="curve"/>
			<point x="186" y="164"/>
			<point x="148" y="189"/>
			<point x="129" y="224" type="curve"/>
			<point x="4" y="102" type="line"/>
			<point x="53" y="35"/>
			<point x="154" y="-12"/>
		</contour>
	</outline>
</glyph>
<glyph name="M" format="2">
	<advance width="888"/>
	<unicode hex="004D"/>
	<outline>
		<contour>
			<point x="66" y="687" type="line"/>
			<point x="66" y="0" type="line"/>
			<point x="260" y="0" type="line"/>
			<point x="260" y="368" type="line"/>
			<point x="444" y="40" type="line"/>
			<point x="628" y="368" type="line"/>
			<point x="628" y="0" type="line"/>
			<point x="822" y="0" type="line"/>
			<point x="822" y="687" type="line"/>
			<point x="628" y="687" type="line"/>
			<point x="444" y="359" type="line"/>
			<point x="260" y="687" type="line"/>
		</contour>
	</outline>
</glyph>
<glyph name="O" format="2">
	<advance width="796"/>
	<unicode hex="004F"/>
	<anchor x="398" y="687" name="top"/>
	<outline>
		<contour>
			<point x="398" y="-12" type="curve"/>
			<point x="398" y="-12" type="line"/>
			<point x="601" y="-12"/>
			<point x="772" y="151"/>
			<point x="772" y="344" type="curve"/>
			<point x="772" y="537"/>
			<point x="601" y="699"/>
			<point x="398" y="699" type="curve"/>
			<point x="195" y="699"/>
			<point x="24" y="537"/>
			<point x="24" y="344" type="curve"/>
			<point x="24" y="151"/>
			<point x="195" y="-12"/>
		</contour>
		<contour>
			<point x="398" y="164" type="curve"/>
			<point x="398" y="164" type="line"/>
			<point x="304" y="164"/>
			<point x="224" y="246"/>
			<point x="224" y="344" type="curve"/>
			<point x="224" y="441"/>
			<point x="304" y="523"/>
			<point x="398" y="523" type="curve"/>
			<point x="492" y="523"/>
			<point x="572" y="441"/>
			<point x="572" y="344" type="curve"/>
			<point x="572" y="246"/>
			<point x="492" y="164"/>
		</contour>
	</outline>
</glyph>
<glyph name="P" format="2">
	<advance width="678"/>
	<unicode hex="0050"/>
	<outline>
		<contour>
			<point x="66" y="687" type="line"/>
			<point x="66" y="0" type="line"/>
			<point x="260" y="0" type="line"/>
			<point x="260" y="207" type="line"/>
			<point x="395" y="207" type="line" smooth="yes"/>
			<point x="549" y="207"/>
			<point x="658" y="306"/>
			<point x="658" y="447" type="curve"/>
			<point x="658" y="588"/>
			<point x="549" y="687"/>
			<point x="395" y="687" type="curve"/>
		</contour>
		<contour>
			<point x="379" y="383" type="curve"/>
			<point x="260" y="383" type="line"/>
			<point x="260" y="511" type="line"/>
			<point x="379" y="511" type="line" smooth="yes"/>
			<point x="425" y="511"/>
			<point x="458" y="484"/>
			<point x="458" y="447" type="curve"/>
			<point x="458" y="410"/>
			<point x="425" y="383"/>
		</contour>
	</outline>
</glyph>
<glyph name="X" format="2">
	<advance width="741"/>
	<unicode hex="0058"/>
	<outline>
		<contour>
			<point x="14" y="687" type="line"/>
			<point x="500" y="0" type="line"/>
			<point x="727" y="0" type="line"/>
			<point x="241" y="687" type="line"/>
		</contour>
		<contour>
			<point x="504" y="687" type="line"/>
			<point x="14" y="0" type="line"/>
			<point x="237" y="0" type="line"/>
			<point x="727" y="687" type="line"/>
		</contour>
	</outline>
</glyph>
<glyph name="Y" format="2">
	<advance width="735"/>
	<unicode hex="0059"/>
	<anchor x="368" y="687" name="top"/>
	<outline>
		<contour>
			<point x="271" y="226" type="line"/>
			<point x="271" y="0" type="line"/>
			<point x="465" y="0" type="line"/>
			<point x="465" y="226" type="line"/>
			<point x="728" y="687" type="line"/>
			<point x="515" y="687" type="line"/>
			<point x="368" y="408" type="line"/>
			<point x="229" y="687" type="line"/>
			<point x="7" y="687" type="line"/>
		</contour>
	</outline>
</glyph>
<glyph name="p" format="2">
	<advance width="682"/>
	<unicode hex="0070"/>
	<outline>
		<contour>
			<point x="422" y="-12" type="curve"/>
			<point x="422" y="-12" type="line"/>
			<point x="561" y="-12"/>
			<point x="659" y="100"/>
			<point x="659" y="259" type="curve"/>
			<point x="659" y="417"/>
			<point x="561" y="529"/>
			<point x="422" y="529" type="curve"/>
			<point x="286" y="529"/>
			<point x="189" y="417"/>
			<point x="189" y="259" type="curve"/>
			<point x="189" y="100"/>
			<point x="286" y="-12"/>
		</contour>
		<contour>
			<point x="361" y="148" type="curve"/>
			<point x="361" y="148" type="line"/>
			<point x="300" y="148"/>
			<point x="257" y="194"/>
			<point x="257" y="259" type="curve"/>
			<point x="257" y="323"/>
			<point x="300" y="369"/>
			<point x="361" y="369" type="curve"/>
			<point x="428" y="369"/>
			<point x="475" y="323"/>
			<point x="475" y="259" type="curve"/>
			<point x="475" y="194"/>
			<point x="428" y="148"/>
		</contour>
		<contour>
			<point x="64" y="517" type="line"/>
			<point x="64" y="-172" type="line"/>
			<point x="257" y="-172" type="line"/>
			<point x="257" y="517" type="line"/>
		</contour>
	</outline>
</glyph>
<glyph name="r" format="2">
	<advance width="427"/>
	<unicode hex="0072"/>
	<anchor x="235" y="517" name="top"/>
	<anchor x="235" y="0" name="bottom"/>
	<outline>
		<contour>
			<point x="216" y="279" type="curve"/>
			<point x="249" y="219" type="line"/>
			<point x="249" y="313"/>
			<point x="309" y="369"/>
			<point x="411" y="369" type="curve"/>
			<point x="411" y="529" type="line"/>
			<point x="297" y="529"/>
			<point x="216" y="425"/>
		</contour>
		<contour>
			<point x="56" y="517" type="line"/>
			<point x="56" y="0" type="line"/>
			<point x="249" y="0" type="line"/>
			<point x="249" y="517" type="line"/>
		</contour>
	</outline>
</glyph>
<glyph name="z" format="2">
	<advance width="557"/>
	<unicode hex="007A"/>
	<anchor x="283" y="517" name="top"/>
	<outline>
		<contour>
			<point x="37" y="133" type="line"/>
			<point x="37" y="0" type="line"/>
			<point x="518" y="0" type="line"/>
			<point x="518" y="160" type="line"/>
			<point x="286" y="160" type="line"/>
			<point x="515" y="384" type="line"/>
			<point x="516" y="517" type="line"/>
			<point x="44" y="517" type="line"/>
			<point x="44" y="357" type="line"/>
			<point x="266" y="357" type="line"/>
		</contour>
	</outline>
</glyph>
<glyph name="yen" format="2">
	<advance width="815"/>
	<unicode hex="00A5"/>
	<anchor x="408" y="687" name="top"/>
	<outline>
		<contour>
			<point x="162" y="177" type="line"/>
			<point x="162" y="90" type="line"/>
			<point x="658" y="90" type="line"/>
			<point x="658" y="177" type="line"/>
		</contour>
		<contour>
			<point x="162" y="317" type="line"/>
			<point x="162" y="230" type="line"/>
			<point x="658" y="230" type="line"/>
			<point x="658" y="317" type="line"/>
		</contour>
		<contour>
			<point x="311" y="226" type="line"/>
			<point x="311" y="0" type="line"/>
			<point x="505" y="0" type="line"/>
			<point x="505" y="226" type="line"/>
			<point x="768" y="687" type="line"/>
			<point x="555" y="687" type="line"/>
			<point x="408" y="408" type="line"/>
			<point x="269" y="687" type="line"/>
			<point x="47" y="687" type="line"/>
		</contour>
	</outline>
</glyph>
<glyph name="dieresis" format="2">
	<advance width="440"/>
	<unicode hex="00A8"/>
	<anchor x="220" y="704" name="top"/>
	<anchor x="220" y="517" name="_top"/>
	<outline>
		<contour>
			<point x="108" y="575" type="curve"/>
			<point x="108" y="575" type="line"/>
			<point x="155" y="575"/>
			<point x="194" y="614"/>
			<point x="194" y="662" type="curve"/>
			<point x="194" y="708"/>
			<point x="155" y="748"/>
			<point x="108" y="748" type="curve"/>
			<point x="58" y="748"/>
			<point x="21" y="708"/>
			<point x="21" y="662" type="curve"/>
			<point x="21" y="614"/>
			<point x="58" y="575"/>
		</contour>
		<contour>
			<point x="333" y="575" type="curve"/>
			<point x="333" y="575" type="line"/>
			<point x="381" y="575"/>
			<point x="419" y="614"/>
			<point x="419" y="662" type="curve"/>
			<point x="419" y="708"/>
			<point x="381" y="748"/>
			<point x="333" y="748" type="curve"/>
			<point x="284" y="748"/>
			<point x="246" y="708"/>
			<point x="246" y="662" type="curve"/>
			<point x="246" y="614"/>
			<point x="284" y="575"/>
		</contour>
	</outline>
</glyph>
<glyph name="paragraph" format="2">
	<advance width="782"/>
	<unicode hex="00B6"/>
	<outline>
		<contour>
			<point x="290" y="272" type="curve"/>
			<point x="290" y="-50" type="line"/>
			<point x="427" y="-50" type="line"/>
			<point x="427" y="556" type="line"/>
			<point x="550" y="556" type="line"/>
			<point x="550" y="-50" type="line"/>
			<point x="687" y="-50" type="line"/>
			<point x="687" y="684" type="line"/>
			<point x="277" y="684" type="line"/>
			<point x="140" y="684"/>
			<point x="45" y="601"/>
			<point x="45" y="477" type="curve"/>
			<point x="45" y="354"/>
			<point x="138" y="272"/>
		</contour>
	</outline>
</glyph>
<glyph name="periodcentered" format="2">
	<advance width="293"/>
	<unicode hex="00B7"/>
	<outline>
		<contour>
			<point x="146" y="177" type="curve"/>
			<point x="146" y="177" type="line"/>
			<point x="202" y="177"/>
			<point x="248" y="222"/>
			<point x="248" y="279" type="curve"/>
			<point x="248" y="335"/>
			<point x="202" y="381"/>
			<point x="146" y="381" type="curve"/>
			<point x="89" y="381"/>
			<point x="44" y="335"/>
			<point x="44" y="279" type="curve"/>
			<point x="44" y="222"/>
			<point x="89" y="177"/>
		</contour>
	</outline>
</glyph>
<glyph name="multiply" format="2">
	<advance width="557"/>
	<unicode hex="00D7"/>
	<outline>
		<contour>
			<point x="49" y="210" type="line"/>
			<point x="155" y="104" type="line"/>
			<point x="508" y="457" type="line"/>
			<point x="402" y="563" type="line"/>
		</contour>
		<contour>
			<point x="46" y="454" type="line"/>
			<point x="399" y="101" type="line"/>
			<point x="512" y="214" type="line"/>
			<point x="159" y="567" type="line"/>
		</contour>
	</outline>
</glyph>
<glyph name="Oslash" format="2">
	<advance width="808"/>
	<unicode hex="00D8"/>
	<anchor x="405" y="687" name="top"/>
	<outline>
		<contour>
			<point x="405" y="-12" type="curve"/>
			<point x="405" y="-12" type="line"/>
			<point x="608" y="-12"/>
			<point x="779" y="151"/>
			<point x="779" y="344" type="curve"/>
			<point x="779" y="537"/>
			<point x="608" y="699"/>
			<point x="405" y="699" type="curve"/>
			<point x="202" y="699"/>
			<point x="31" y="537"/>
			<point x="31" y="344" type="curve"/>
			<point x="31" y="151"/>
			<point x="202" y="-12"/>
		</contour>
		<contour>
			<point x="405" y="164" type="curve"/>
			<point x="405" y="164" type="line"/>
			<point x="311" y="164"/>
			<point x="231" y="246"/>
			<point x="231" y="344" type="curve"/>
			<point x="231" y="441"/>
			<point x="311" y="523"/>
			<point x="405" y="523" type="curve"/>
			<point x="499" y="523"/>
			<point x="579" y="441"/>
			<point x="579" y="344" type="curve"/>
			<point x="579" y="246"/>
			<point x="499" y="164"/>
		</contour>
		<contour>
			<point x="604" y="687" type="line"/>
			<point x="34" y="0" type="line"/>
			<point x="194" y="0" type="line"/>
			<point x="764" y="687" type="line"/>
		</contour>
	</outline>
</glyph>
<glyph name="divide" format="2">
	<advance width="595"/>
	<unicode hex="00F7"/>
	<outline>
		<contour>
			<point x="48" y="409" type="line"/>
			<point x="48" y="260" type="line"/>
			<point x="547" y="260" type="line"/>
			<point x="547" y="409" type="line"/>
		</contour>
		<contour>
			<point x="300" y="30" type="curve"/>
			<point x="300" y="30" type="line"/>
			<point x="353" y="30"/>
			<point x="396" y="75"/>
			<point x="396" y="130" type="curve"/>
			<point x="396" y="181"/>
			<point x="353" y="226"/>
			<point x="300" y="226" type="curve"/>
			<point x="244" y="226"/>
			<point x="200" y="181"/>
			<point x="200" y="130" type="curve"/>
			<point x="200" y="75"/>
			<point x="244" y="30"/>
		</contour>
		<contour>
			<point x="300" y="442" type="curve"/>
			<point x="300" y="442" type="line"/>
			<point x="353" y="442"/>
			<point x="396" y="487"/>
			<point x="396" y="542" type="curve"/>
			<point x="396" y="593"/>
			<point x="353" y="638"/>
			<point x="300" y="638" type="curve"/>
			<point x="244" y="638"/>
			<point x="200" y="593"/>
			<point x="200" y="542" type="curve"/>
			<point x="200" y="487"/>
			<point x="244" y="442"/>
		</contour>
	</outline>
</glyph>
<glyph name="thorn" format="2">
	<advance width="690"/>
	<unicode hex="00FE"/>
	<outline>
		<contour>
			<point x="430" y="-12" type="curve"/>
			<point x="430" y="-12" type="line"/>
			<point x="569" y="-12"/>
			<point x="667" y="100"/>
			<point x="667" y="259" type="curve"/>
			<point x="667" y="417"/>
			<point x="569" y="529"/>
			<point x="430" y="529" type="curve"/>
			<point x="294" y="529"/>
			<point x="197" y="417"/>
			<point x="197" y="259" type="curve"/>
			<point x="197" y="100"/>
			<point x="294" y="-12"/>
		</contour>
		<contour>
			<point x="369" y="148" type="curve"/>
			<point x="369" y="148" type="line"/>
			<point x="308" y="148"/>
			<point x="265" y="194"/>
			<point x="265" y="259" type="curve"/>
			<point x="265" y="323"/>
			<point x="308" y="369"/>
			<point x="369" y="369" type="curve"/>
			<point x="436" y="369"/>
			<point x="483" y="323"/>
			<point x="483" y="259" type="curve"/>
			<point x="483" y="194"/>
			<point x="436" y="148"/>
		</contour>
		<contour>
			<point x="72" y="699" type="line"/>
			<point x="72" y="-172" type="line"/>
			<point x="265" y="-172" type="line"/>
			<point x="265" y="699" type="line"/>
		</contour>
	</outline>
</glyph>
<glyph name="lcaron" format="2">
	<advance width="479"/>
	<unicode hex="013E"/>
	<anchor x="160" y="699" name="top"/>
	<anchor x="160" y="0" name="bottom"/>
	<outline>
		<contour>
			<point x="64" y="699" type="line"/>
			<point x="64" y="0" type="line"/>
			<point x="257" y="0" type="line"/>
			<point x="257" y="699" type="line"/>
		</contour>
		<contour>
			<point x="334" y="457" type="curve"/>
			<point x="380" y="421" type="line"/>
			<point x="435" y="466"/>
			<point x="473" y="534"/>
			<point x="473" y="585" type="curve"/>
			<point x="473" y="652"/>
			<point x="437" y="699"/>
			<point x="386" y="699" type="curve"/>
			<point x="337" y="699"/>
			<point x="302" y="663"/>
			<point x="302" y="612" type="curve"/>
			<point x="302" y="562"/>
			<point x="335" y="527"/>
			<point x="383" y="527" type="curve"/>
			<point x="377" y="504"/>
			<point x="357" y="476"/>
		</contour>
	</outline>
</glyph>
<glyph name="caron" format="2">
	<advance width="396"/>
	<unicode hex="02C7"/>
	<anchor x="197" y="704" name="top"/>
	<anchor x="197" y="517" name="_top"/>
	<outline>
		<contour>
			<point x="12" y="728" type="line"/>
			<point x="120" y="574" type="line"/>
			<point x="275" y="574" type="line"/>
			<point x="384" y="728" type="line"/>
			<point x="271" y="728" type="line"/>
			<point x="197" y="661" type="line"/>
			<point x="124" y="728" type="line"/>
		</contour>
	</outline>
</glyph>
<glyph name="dotaccent" format="2">
	<advance width="215"/>
	<unicode hex="02D9"/>
	<anchor x="108" y="704" name="top"/>
	<anchor x="108" y="0" name="bottom"/>
	<anchor x="108" y="517" name="_top"/>
	<outline>
		<contour>
			<point x="108" y="575" type="curve"/>
			<point x="108" y="575" type="line"/>
			<point x="155" y="575"/>
			<point x="194" y="614"/>
			<point x="194" y="662" type="curve"/>
			<point x="194" y="708"/>
			<point x="155" y="748"/>
			<point x="108" y="748" type="curve"/>
			<point x="58" y="748"/>
			<point x="21" y="708"/>
			<point x="21" y="662" type="curve"/>
			<point x="21" y="614"/>
			<point x="58" y="575"/>
		</contour>
	</outline>
</glyph>
<glyph name="ogonek" format="2">
	<advance width="244"/>
	<unicode hex="02DB"/>
	<anchor x="175" y="0" name="_bottom"/>
	<outline>
		<contour>
			<point x="135" y="-173" type="curve"/>
			<point x="135" y="-173" type="line"/>
			<point x="174" y="-173"/>
			<point x="206" y="-158"/>
			<point x="228" y="-138" type="curve"/>
			<point x="206" y="-56" type="line"/>
			<point x="199" y="-62"/>
			<point x="187" y="-66"/>
			<point x="176" y="-66" type="curve"/>
			<point x="153" y="-66"/>
			<point x="137" y="-57"/>
			<point x="137" y="-36" type="curve"/>
			<point x="137" y="-15"/>
			<point x="152" y="0"/>
			<point x="175" y="0" type="curve"/>
			<point x="74" y="38" type="line"/>
			<point x="41" y="15"/>
			<point x="23" y="-16"/>
			<point x="23" y="-59" type="curve"/>
			<point x="23" y="-129"/>
			<point x="69" y="-173"/>
		</contour>
	</outline>
</glyph>
<glyph name="bullet" format="2">
	<advance width="387"/>
	<unicode hex="2022"/>
	<outline>
		<contour>
			<point x="194" y="148" type="curve"/>
			<point x="194" y="148" type="line"/>
			<point x="276" y="148"/>
			<point x="343" y="215"/>
			<point x="343" y="298" type="curve"/>
			<point x="343" y="380"/>
			<point x="276" y="447"/>
			<point x="194" y="447" type="curve"/>
			<point x="111" y="447"/>
			<point x="44" y="380"/>
			<point x="44" y="298" type="curve"/>
			<point x="44" y="215"/>
			<point x="111" y="148"/>
		</contour>
	</outline>
</glyph>
<glyph name="guilsinglleft" format="2">
	<advance width="374"/>
	<unicode hex="2039"/>
	<outline>
		<contour>
			<point x="27" y="256" type="line"/>
			<point x="194" y="48" type="line"/>
			<point x="336" y="79" type="line"/>
			<point x="197" y="256" type="line"/>
			<point x="336" y="432" type="line"/>
			<point x="194" y="462" type="line"/>
		</contour>
	</outline>
</glyph>
<glyph name="trademark" format="2">
	<advance width="775"/>
	<unicode hex="2122"/>
	<outline>
		<contour>
			<point x="136" y="495" type="line"/>
			<point x="136" y="280" type="line"/>
			<point x="231" y="280" type="line"/>
			<point x="231" y="495" type="line"/>
			<point x="314" y="495" type="line"/>
			<point x="314" y="580" type="line"/>
			<point x="52" y="580" type="line"/>
			<point x="52" y="495" type="line"/>
		</contour>
		<contour>
			<point x="348" y="580" type="line"/>
			<point x="348" y="280" type="line"/>
			<point x="444" y="280" type="line"/>
			<point x="444" y="421" type="line"/>
			<point x="519" y="297" type="line"/>
			<point x="594" y="421" type="line"/>
			<point x="594" y="280" type="line"/>
			<point x="689" y="280" type="line"/>
			<point x="689" y="580" type="line"/>
			<point x="594" y="580" type="line"/>
			<point x="519" y="457" type="line"/>
			<point x="444" y="580" type="line"/>
		</contour>
	</outline>
</glyph>
<glyph name="a.alt" format="2">
	<advance width="673"/>
	<anchor x="330" y="517" name="top"/>
	<anchor x="618" y="0" name="bottom"/>
	<outline>
		<contour>
			<point x="425" y="517" type="line"/>
			<point x="425" y="0" type="line"/>
			<point x="618" y="0" type="line"/>
			<point x="618" y="517" type="line"/>
		</contour>
		<contour>
			<point x="260" y="-12" type="curve"/>
			<point x="260" y="-12" type="line"/>
			<point x="397" y="-12"/>
			<point x="493" y="99"/>
			<point x="493" y="259" type="curve"/>
			<point x="493" y="418"/>
			<point x="397" y="529"/>
			<point x="260" y="529" type="curve"/>
			<point x="121" y="529"/>
			<point x="23" y="418"/>
			<point x="23" y="259" type="curve"/>
			<point x="23" y="99"/>
			<point x="121" y="-12"/>
		</contour>
		<contour>
			<point x="321" y="148" type="curve"/>
			<point x="321" y="148" type="line"/>
			<point x="254" y="148"/>
			<point x="207" y="194"/>
			<point x="207" y="259" type="curve"/>
			<point x="207" y="324"/>
			<point x="254" y="369"/>
			<point x="321" y="369" type="curve"/>
			<point x="382" y="369"/>
			<point x="425" y="324"/>
			<point x="425" y="259" type="curve"/>
			<point x="425" y="194"/>
			<point x="382" y="148"/>
		</contour>
	</outline>
</glyph>
<glyph name="k_arms" format="2">
	<advance width="411"/>
	<anchor x="34" y="107" name="k_arms"/>
	<outline>
		<contour>
			<point x="86" y="171" type="line"/>
			<point x="181" y="0" type="line"/>
			<point x="397" y="0" type="line"/>
			<point x="212" y="294" type="line"/>
			<point x="393" y="517" type="line"/>
			<point x="177" y="517" type="line"/>
			<point x="35" y="323" type="line"/>
			<point x="34" y="107" type="line"/>
		</contour>
	</outline>
</glyph>
